<?xml version="1.0" encoding="UTF-8" standalone="no"?>
<svg
   xmlns:dc="http://purl.org/dc/elements/1.1/"
   xmlns:cc="http://creativecommons.org/ns#"
   xmlns:rdf="http://www.w3.org/1999/02/22-rdf-syntax-ns#"
   xmlns:svg="http://www.w3.org/2000/svg"
   xmlns="http://www.w3.org/2000/svg"
   viewBox="0 0 1889.76 1889.76"
   height="1889.76"
   width="1889.76"
   xml:space="preserve"
   id="svg2"
   version="1.1"><metadata
     id="metadata8"><rdf:RDF><cc:Work
         rdf:about=""><dc:format>image/svg+xml</dc:format><dc:type
           rdf:resource="http://purl.org/dc/dcmitype/StillImage" /></cc:Work></rdf:RDF></metadata><defs
     id="defs6"><clipPath
       id="clipPath18"
       clipPathUnits="userSpaceOnUse"><path
         id="path16"
         d="M 0,1417.32 H 1417.32 V 0 H 0 Z" /></clipPath></defs><g
     transform="matrix(1.3333333,0,0,-1.3333333,0,1889.76)"
     id="g10"><g
       id="g12"><g
         clip-path="url(#clipPath18)"
         id="g14"><g
           transform="translate(251.0361,468.5449)"
           id="g20"><path
             id="path22"
             style="fill:#373561;fill-opacity:1;fill-rule:nonzero;stroke:none"
             d="m 0,0 h 11.27 c 8.866,0 15.092,1.538 18.681,4.619 3.587,3.079 5.381,7.022 5.381,11.828 0,4.67 -1.558,8.63 -4.67,11.878 -3.115,3.249 -8.97,4.874 -17.565,4.874 H 0 Z m -46.195,63.454 h 76.45 c 16.651,0 29.121,-3.96 37.413,-11.879 8.29,-7.919 12.437,-19.188 12.437,-33.808 0,-15.026 -4.518,-26.77 -13.554,-35.23 -9.036,-8.462 -22.827,-12.691 -41.372,-12.691 H 0 v -55.231 h -46.195 z" /></g><g
           transform="translate(389.9043,471.6914)"
           id="g24"><path
             id="path26"
             style="fill:#373561;fill-opacity:1;fill-rule:nonzero;stroke:none"
             d="m 0,0 h 19.392 c 2.097,0 6.158,0.676 12.183,2.031 3.046,0.61 5.533,2.165 7.462,4.67 1.929,2.503 2.894,5.381 2.894,8.63 0,4.805 -1.523,8.493 -4.569,11.066 -3.046,2.572 -8.766,3.859 -17.158,3.859 H 0 Z M -46.195,-88.531 V 60.308 h 76.653 c 14.214,0 25.077,-1.219 32.59,-3.656 7.514,-2.436 13.57,-6.954 18.174,-13.553 4.602,-6.6 6.903,-14.638 6.903,-24.113 0,-8.258 -1.76,-15.382 -5.282,-21.372 -3.522,-5.99 -8.365,-10.847 -14.527,-14.568 -3.927,-2.37 -9.311,-4.333 -16.152,-5.889 5.478,-1.831 9.469,-3.66 11.973,-5.487 1.691,-1.221 4.141,-3.828 7.356,-7.826 3.212,-3.997 5.36,-7.08 6.442,-9.246 l 22.272,-43.129 H 48.24 l -24.584,45.484 c -3.114,5.889 -5.889,9.712 -8.325,11.473 -3.318,2.3 -7.074,3.451 -11.27,3.451 H 0 v -60.408 z" /></g><g
           transform="translate(504.627,531.999)"
           id="g28"><path
             id="path30"
             style="fill:#373561;fill-opacity:1;fill-rule:nonzero;stroke:none"
             d="M 0,0 H 123.254 V -31.778 H 46.093 V -55.434 H 117.67 V -85.79 H 46.093 v -29.342 h 79.395 v -33.707 H 0 Z" /></g><g
           transform="translate(651.7754,531.999)"
           id="g32"><path
             id="path34"
             style="fill:#373561;fill-opacity:1;fill-rule:nonzero;stroke:none"
             d="M 0,0 H 60.484 L 83.811,-90.563 106.971,0 h 60.447 V -148.839 H 129.752 V -35.331 L 100.73,-148.839 H 66.635 L 37.666,-35.331 V -148.839 H 0 Z" /></g><g
           transform="translate(1012.7891,531.999)"
           id="g36"><path
             id="path38"
             style="fill:#373561;fill-opacity:1;fill-rule:nonzero;stroke:none"
             d="m 0,0 h 45.891 v -88.676 c 0,-8.794 -1.371,-17.096 -4.114,-24.908 -2.74,-7.812 -7.039,-14.645 -12.892,-20.495 -5.856,-5.851 -11.998,-9.959 -18.428,-12.326 -8.934,-3.315 -19.664,-4.972 -32.184,-4.972 -7.244,0 -15.146,0.508 -23.707,1.522 -8.562,1.016 -15.72,3.026 -21.472,6.037 -5.754,3.009 -11.016,7.288 -15.787,12.834 -4.774,5.546 -8.039,11.261 -9.799,17.147 -2.842,9.469 -4.264,17.856 -4.264,25.161 V 0 h 45.891 v -90.787 c 0,-8.116 2.25,-14.457 6.752,-19.021 4.5,-4.566 10.744,-6.846 18.73,-6.846 7.92,0 14.129,2.247 18.631,6.745 4.5,4.497 6.752,10.871 6.752,19.122 z" /></g><g
           transform="translate(1088.8379,531.999)"
           id="g40"><path
             id="path42"
             style="fill:#373561;fill-opacity:1;fill-rule:nonzero;stroke:none"
             d="M 0,0 H 42.945 L 98.988,-82.345 V 0 h 43.354 V -148.839 H 98.988 L 43.25,-67.116 v -81.723 H 0 Z" /></g><path
           id="path44"
           style="fill:#373561;fill-opacity:1;fill-rule:nonzero;stroke:none"
           d="m 847,531.999 h 38.193 V 383.16 H 847 Z" /><g
           transform="translate(641.75,678.6123)"
           id="g46"><path
             id="path48"
             style="fill:#373561;fill-opacity:1;fill-rule:nonzero;stroke:none"
             d="M 0,0 C 0,0 5.926,-41.163 28.583,-75.958 47.25,-104.625 82.25,-138.161 82.25,-138.161 L 82,-86 Z" /></g><g
           transform="translate(724,762.4453)"
           id="g50"><path
             id="path52"
             style="fill:#9da86c;fill-opacity:1;fill-rule:nonzero;stroke:none"
             d="M 0,0 -77.5,-70.625 0,-151.5 77,-70.625 Z" /></g><g
           transform="translate(724.25,592.6123)"
           id="g54"><path
             id="path56"
             style="fill:#373561;fill-opacity:1;fill-rule:nonzero;stroke:none"
             d="M 0,0 -0.496,-0.751 -0.5,0 l -82,86 c 0,0 5.926,-41.163 28.583,-75.958 18.667,-28.667 53.667,-62.203 53.667,-62.203 0,0 35,33.536 53.667,62.203 C 76.074,44.837 82,86 82,86 Z" /></g><g
           transform="translate(776.2275,798.748)"
           id="g58"><path
             id="path60"
             style="fill:#9da86c;fill-opacity:1;fill-rule:nonzero;stroke:none"
             d="M 0,0 43.22,-95.531 144.085,-46.816 90.963,51.407 Z" /></g><g
           transform="translate(937.8252,746.5039)"
           id="g62"><path
             id="path64"
             style="fill:#373561;fill-opacity:1;fill-rule:nonzero;stroke:none"
             d="m 0,0 0.562,-0.703 -0.716,0.227 -107.13,-51.411 c 0,0 40.979,-7.084 81.073,3.712 33.032,8.895 75.742,31.819 75.742,31.819 0,0 -21.079,43.65 -42.574,70.262 -26.091,32.301 -63.408,50.657 -63.408,50.657 z" /></g><g
           transform="translate(667.3564,798.748)"
           id="g66"><path
             id="path68"
             style="fill:#9da86c;fill-opacity:1;fill-rule:nonzero;stroke:none"
             d="m 0,0 -43.22,-95.531 -100.865,48.715 53.122,98.223 z" /></g><g
           transform="translate(505.7588,746.5039)"
           id="g70"><path
             id="path72"
             style="fill:#373561;fill-opacity:1;fill-rule:nonzero;stroke:none"
             d="m 0,0 -0.562,-0.703 0.716,0.227 107.13,-51.411 c 0,0 -40.979,-7.084 -81.073,3.712 -33.032,8.895 -75.742,31.819 -75.742,31.819 0,0 21.079,43.65 42.574,70.262 26.091,32.301 63.408,50.657 63.408,50.657 z" /></g><g
           transform="translate(689.9292,865.126)"
           id="g74"><path
             id="path76"
             style="fill:#9da86c;fill-opacity:1;fill-rule:nonzero;stroke:none"
             d="M 0,0 -104.211,11.583 -89.05,122.566 20.782,102.396 Z" /></g><g
           transform="translate(590.3057,1002.6699)"
           id="g78"><path
             id="path80"
             style="fill:#373561;fill-opacity:1;fill-rule:nonzero;stroke:none"
             d="m 0,0 -0.842,0.317 0.437,-0.61 -15.79,-117.774 c 0,0 -19.4,36.785 -21.522,78.252 -1.749,34.164 6.855,81.868 6.855,81.868 0,0 48.028,-6.559 79.98,-18.779 38.782,-14.832 67.771,-44.65 67.771,-44.65 z" /></g><g
           transform="translate(754.8496,865.126)"
           id="g82"><path
             id="path84"
             style="fill:#9da86c;fill-opacity:1;fill-rule:nonzero;stroke:none"
             d="M 0,0 104.212,11.583 89.05,122.566 -20.782,102.396 Z" /></g><g
           transform="translate(854.4736,1002.6699)"
           id="g86"><path
             id="path88"
             style="fill:#373561;fill-opacity:1;fill-rule:nonzero;stroke:none"
             d="m 0,0 0.842,0.317 -0.438,-0.61 15.79,-117.774 c 0,0 19.401,36.785 21.523,78.252 1.748,34.164 -6.856,81.868 -6.856,81.868 0,0 -48.027,-6.559 -79.98,-18.779 -38.781,-14.832 -67.771,-44.65 -67.771,-44.65 z" /></g></g></g></g></svg>